# xmcd
#
# Track frame offsets: 
#        150
#        10307
#        26075
#        35862
#        45642
#        65412
#        86135
#        97565
#        109632
#        124160
#        139365
#        154020
#        164962
#        183600
#        197225
#        207425
#        221032
#        234880
#        249022
#        260742
#        268687
#        282387
#        293787
#        302120
#
# Disc length: 4309 seconds
#
# Revision: 2
# Processed by: cddbd v1.5.2PL0 Copyright (c) Steve Scherf et al.
# Submitted via: ExactAudioCopyFreeDBPlugin 1.0
#
DISCID=6e10d318
DTITLE=Screamin J Hawkins - Feast of the Mau Mau, 1988
DYEAR=1900
DGENRE=Blues
TTITLE0=What that is!
TTITLE1=Feast of the Mau Mau
TTITLE2=Do You Really Love Me? (1969)
TTITLE3=Stone Crazy (1969)
TTITLE4=I Love You (1969)
TTITLE5=Constipation Blues (1969)
TTITLE6=I'm Lonely
TTITLE7=Thing called woman
TTITLE8=Dig!
TTITLE9=I'm your man
TTITLE10=Ask Him (1969)
TTITLE11=Reprise
TTITLE12=Please don't leave me
TTITLE13=I Wanta Know (1970)
TTITLE14=I need you
TTITLE15=My Marion
TTITLE16=Bite it
TTITLE17=Move me
TTITLE18=Goodnight My Love (1970)
TTITLE19=Our love is not for 3
TTITLE20=Ain't nobody's business
TTITLE21=Take me back
TTITLE22=Trying to reach my goal
TTITLE23=So Long (1970)
EXTD=
EXTT0=
EXTT1=
EXTT2=
EXTT3=
EXTT4=
EXTT5=
EXTT6=
EXTT7=
EXTT8=
EXTT9=
EXTT10=
EXTT11=
EXTT12=
EXTT13=
EXTT14=
EXTT15=
EXTT16=
EXTT17=
EXTT18=
EXTT19=
EXTT20=
EXTT21=
EXTT22=
EXTT23=
PLAYORDER=
